/* XPM */
static char *player_xpm[] = {
"32 32 8 1 ",
"  c #4b692f",
". c #181425",
"X c #eec39a",
"o c #a0a08b",
"O c #5ac54f",
"+ c #ffffff",
"1 c #374e24",
"2 c #6a8c3e",
"                                ",
"                                ",
"      2                      1  ",
"     2 2   .......   2          ",
"      2   ......... 2 2         ",
"         ...XXXXX... 2          ",
"   1     ..X++X++X..         1  ",
"         ..X..X..X..            ",
"         ..XXXXXXX..            ",
"      2  ..XX...XX..      2     ",
"          ..XXXXX..      .      ",
"          .ooXXXoo.     .+.     ",
"          .........    .++.     ",
"  1      .oOOOOOOOo.   .++.     ",
"        .oOOOOOOOOOo. .++.      ",
"        .OO.OOOOO.OO..++.    1  ",
"        .OO.ooooo.OO.+++.       ",
"        .OO.ooooo.OO.++.        ",
"        ....OOOOO....+.         ",
"         XX.OOOOO.Xo..     1    ",
"           .OO.OO.XX.           ",
"      1    .OO.OO.              ",
"           .OO.OO.              ",
"           .oo.oo.              ",
"      1    .OO.OO.  1           ",
"           .OO.OO.         2    ",
"           .XX.XX.              ",
"     2     .......              ",
"                                ",
"                   2            ",
"                                ",
"                                "
};