/* XPM */
static char *player_xpm[] = {
"32 32 6 1 ",
"  c None",
". c #181425",
"X c #eec39a",
"o c #a0a08b",
"O c #5ac54f",
"+ c #ffffff",
"                                ",
"                                ",
"           .......              ",
"          .ooooooo.             ",
"         .oo.....oo.            ",
"        .oo.XXXXX.oo.           ",
"        .o.XXXXXXX.o.           ",
"        .o.X.XXX.X.o.           ",
"        .o.XXXXXXX.o.           ",
"        .o.XXXXXXX.o.           ",
"         .o.XXXXX.o.            ",
"          .ooooooo.   ..        ",
"          .........   .+.       ",
"         .OOOOOOOOO.  .+.       ",
"        .OOOOOOOOOOO. .+.       ",
"        .OO.OOOOO.OO..++.       ",
"        .OO.OOOOO.OO.+++.       ",
"        .OO.OOOOO.OO.++.        ",
"        ....OOOOO....+.         ",
"           .OOOOO.  ...         ",
"           .OOOOO.  .+.         ",
"           .OOOOO.              ",
"           .OOOOO.              ",
"           .OO.OO.              ",
"           .OO.OO.              ",
"           .OO.OO.              ",
"           .......              ",
"                                ",
"                                ",
"                                ",
"                                ",
"                                "
};