/* XPM */
static char *_ebdae45dc344bddaf20338a958d7d96UD6LRkPBZpm9qMMo[] = {
/* columns rows colors chars-per-pixel */
"16 16 3 1 ",
"  c black",
". c #D43E11",
"X c #B8D117",
/* pixels */
"                ",
" .............. ",
" .............. ",
" .............. ",
" ..   ....   .. ",
" .. XX....XX .. ",
" .............. ",
" ......  ...... ",
" .. ... X... .. ",
" .. ........ .. ",
" ..   ....   .. ",
" .. .      . .. ",
" ..... .. ..... ",
" .............. ",
" .............. ",
"                "
};
