/* XPM */
static char *collect_xpm[] = {
"32 32 9 1 ",
"  c #4b692f",
". c #181425",
"X c #2E2B55",
"o c #4AA3FF",
"+ c #FFFFFF",
"@ c #FF7CC8",
"# c #FFD36A",
"1 c #374e24",
"2 c #6a8c3e",
"                                ",
"        #                       ",
"      2                     #1  ",
"     2 2             2          ",
"      2        #    2 2         ",
"              ###    2  #       ",
"   1           #             1  ",
"     #                          ",
"           #       #            ",
"      2                   2     ",
"             2.+.               ",
"       #    2 2+                ",
"             2X@X               ",
"  1          X@@@X      #       ",
"            X@@+@@X             ",
"           X@@+++@@X         1  ",
"            Xoo+ooX             ",
"             XoooX              ",
"     #        XoX               ",
"               o           1    ",
"              .+.           #   ",
"      1         1               ",
"           #       #            ",
"                                ",
"  #   1     2  #    1           ",
"           2 2###          2    ",
"            2  #                ",
"     2                          ",
"                                ",
"                   2            ",
"      #                  #      ",
"                                "
};