/* XPM */
static char *collect_xpm[] = {
"32 32 6 1 ",
"  c None",
". c #2D1B2E",
"X c #905EA9",
"o c #A864C1",
"O c #D898E8",
"+ c #C18E58",
"                                ",
"                                ",
"                                ",
"            ......              ",
"           .++++++.             ",
"           .++++++.             ",
"           ..++++..             ",
"             .++.               ",
"             .++.               ",
"            .oOOo.              ",
"           .oOOOOo.             ",
"          .oOOOOOOo.            ",
"         .oOOOOOOOOo.           ",
"        .oOOOOOOOOOOo.          ",
"       .oOOOOOOOOOOOOo.         ",
"       .oOOOOOOOOOOOOo.         ",
"      .oOOOOOOXXOOOOOOo.        ",
"      .oOOOOOXXXXOOOOOo.        ",
"      .oOOOOXXXXXXOOOOo.        ",
"      .oOOOOXXXXXXOOOOo.        ",
"      .oOOOOXXXXXXOOOOo.        ",
"      .oOOOOXXXXXXOOOOo.        ",
"      .oOOOOOXXXXOOOOOo.        ",
"       .oOOOOOXXOOOOOo.         ",
"       .oOOOOOOOOOOOOo.         ",
"        .oOOOOOOOOOOo.          ",
"         .ooOOOOOOoo.           ",
"          ..oooooo..            ",
"            ......              ",
"                                ",
"                                ",
"                                "
};