/* XPM */
static char *a4ccd81bf2514781958575625b1fe1f9wP2wqcuktcH6DGye[] = {
/* columns rows colors chars-per-pixel */
"16 16 10 1 ",
"  c #261403",
". c #361E08",
"X c #47290E",
"o c #7D5A40",
"O c #9E7351",
"+ c #B88F6C",
"@ c #A19A92",
"# c #BDAE9F",
"$ c #BFB3A6",
"% c #DBD7D3",
/* pixels */
"                ",
" .............. ",
" X++++++++++++X ",
" X+OOOOOOOOOOoX ",
" X+OOOOOOOOOOoX ",
" X+OOOOOOOOOOoX ",
" X+OOOOOOOOOOoX ",
" X+OOOOOOOOOOoX ",
" X+OOOOOOOOO%$X ",
" X+OOOOOOOOO#@X ",
" X+OOOOOOOOOOoX ",
" X+OOOOOOOOOOoX ",
" X+OOOOOOOOOOoX ",
" X+oooooooooooX ",
" XXXXXXXXXXXXXX ",
"                "
};
