/* XPM */
static char *exit_xpm[] = {
"32 32 6 1 ",
"  c None",
". c #212121",
"X c #5D4037",
"o c #8D6E63",
"O c #757575",
"+ c #000000",
"                                ",
"            ......              ",
"          ..OOOOOO..            ",
"         .OOOoooOOO.            ",
"        .OOoooXoooOO.           ",
"       .OOoooXXXoooOO.          ",
"      .OOoooXXXXXoooOO.         ",
"      .OooooXXXXXooooO.         ",
"      .OooooXXXXXooooO.         ",
"      .OooooXXXXXooooO.         ",
"      .OooooXXXXXooooO.         ",
"      .OooooXXXXXooooO.         ",
"      .OooooXXXXXooooO.         ",
"      .OooooXXXXXooooO.         ",
"      .OooooXX+XXooooO.         ",
"      .OooooXX+XXooooO.         ",
"      .OooooXX+XXooooO.         ",
"      .OooooXXXXXooooO.         ",
"      .OooooXXXXXooooO.         ",
"      .OooooXXXXXooooO.         ",
"      .OooooXXXXXooooO.         ",
"      .OooooXXXXXooooO.         ",
"      .OooooXXXXXooooO.         ",
"      .OooooXXXXXooooO.         ",
"      .OooooXXXXXooooO.         ",
"      .OooooXXXXXooooO.         ",
"      .OooooXXXXXooooO.         ",
"      .OooooXXXXXooooO.         ",
"      .OooooXXXXXooooO.         ",
"      .OooooXXXXXooooO.         ",
"      ................          ",
"                                "
};