/* XPM */
static char *_a268107a86d421ac9c4de165466c723N55WPJCvkp9k6Tiy[] = {
/* columns rows colors chars-per-pixel */
"16 16 4 1 ",
"  c #465725",
". c #5A7031",
"X c #46634C",
"o c #809653",
/* pixels */
"....X...o.....  ",
"o.............. ",
"....... ....  ..",
"..  ..  ..... ..",
"..........X.....",
".......o.......X",
".o.......... ...",
"....  .. .......",
"...   ..  ......",
"X... .X.  . ..o.",
"........  ......",
". ..............",
". ...  .... ....",
"...... ........ ",
" .............  ",
"  .o...X....o.  "
};
