/* XPM */
static char *wall_xpm[] = {
"32 32 5 1 ",
"  c #262b44",
". c #3a4466",
"X c #5a6988",
"o c #8b9bb4",
"O c #c0cbdc",
"                                ",
" XXXXXXX..XXXXXXXXXXXX..XXXXXXX ",
" XOOOOOO..XOOOOOOOOOOX..XOOOOOX ",
" XOOOOOO..XOOOOOOOOOOX..XOOOOOX ",
" XXXXXXX..XXXXXXXXXXXX..XXXXXXX ",
" .............................. ",
" .............................. ",
" .............................. ",
" .............................. ",
" ooooooX  ooooooooooX  ooooooX  ",
" ooooooX  ooooooooooX  ooooooX  ",
" XXXXXXX  XXXXXXXXXXX  XXXXXXX  ",
" .......  ...........  .......  ",
"                                ",
" oooooooooX  ooooooX  oooooooo  ",
" oooooooooX  ooooooX  oooooooo  ",
" XXXXXXXXXX  XXXXXXX  XXXXXXXX  ",
" ..........  .......  ........  ",
"                                ",
" ooooooX  ooooooooooooooX  ooo  ",
" ooooooX  ooooooooooooooX  ooo  ",
" XXXXXXX  XXXXXXXXXXXXXXX  XXX  ",
" .......  ...............  ...  ",
"                                ",
" oooooooooooooX  oooooooX  ooo  ",
" oooooooooooooX  oooooooX  ooo  ",
" XXXXXXXXXXXXXX  XXXXXXXX  XXX  ",
" ..............  ........  ...  ",
"                                ",
"                                ",
"                                ",
"                                "
};