/* XPM */
static char *_6d8373f477742bbc62979f2217e1edd0K3GRV2cIi81Oo9G[] = {
/* columns rows colors chars-per-pixel */
"16 16 3 1 ",
"  c black",
". c #3F0942",
"X c #741178",
/* pixels */
"................",
".. ... .... ....",
".  ..  . ..  ...",
".  .   .  .   ..",
".  .   .  .   ..",
".  .   .  .    .",
".  .   .  .    .",
".  .   .  .    .",
".  .   .  .    .",
".  .   .  .    .",
".  .   .  .    .",
".  .   .  .    .",
".  .   .  .    .",
".  .   .  .    .",
"XXXXXXXXXXXXXXXX",
"XXXXXXXXXXXXXXXX"
};
