/* XPM */
static char *wall_xpm[] = {
"32 32 4 1 ",
"  c #262b44",
". c #3a4466",
"X c #5a6988",
"o c #8b9bb4",
"                                ",
" .............................. ",
" ooooooX..oooooooooooX..ooooooX ",
" ooooooX..oooooooooooX..ooooooX ",
" XXXXXXX..XXXXXXXXXXXX..XXXXXXX ",
" .............................. ",
" oooooooooX  ooooooX  ooooooooo ",
" oooooooooX  ooooooX  ooooooooo ",
" .............................. ",
" ooooooX  ooooooooooX  oooooooX ",
" ooooooX  ooooooooooX  oooooooX ",
" XXXXXXX  XXXXXXXXXXX  XXXXXXXX ",
" .......  ...........  ........ ",
"                                ",
" ooooooX  ooooooooooX  oooooooX ",
" ooooooX  ooooooooooX  oooooooX ",
" XXXXXXX  XXXXXXXXXXX  XXXXXXXX ",
" ..........  .......  ........  ",
"                                ",
" ooooooX  ooooooooooX  oooooooX ",
" ooooooX  ooooooooooX  oooooooX ",
" XXXXXXX  XXXXXXXXXXX  XXXXXXXX ",
" .......  ...............  ...  ",
"                                ",
" ooooooX  ooooooooooX  oooooooX ",
" ooooooX  ooooooooooX  oooooooX ",
" XXXXXXX  XXXXXXXXXXX  XXXXXXXX ",
" ..............  ........  ...  ",
"                                ",
" oooooooooooooX  oooooooX  oooo ",
" oooooooooooooX  oooooooX  oooo ",
"                                "
};